<svg width="80 " height="80" viewBox="0 0 1517 500" fill="none" xmlns="http://www.w3.org/2000/svg">
<path d="M0.390625 335C3.80859 301.96 6.16862 275.43 7.4707 255.41C9.42383 225.788 11.2956 185.098 13.0859 133.34C14.8763 81.4193 15.7715 46.5072 15.7715 28.6035V1.74805C64.7624 2.07357 110.335 2.23633 152.49 2.23633C194.971 2.23633 235.824 2.07357 275.049 1.74805C272.445 39.1829 271.143 63.6784 271.143 75.2344L249.902 74.502L232.812 74.2578L215.723 74.0137H167.627C162.093 74.0137 145.898 74.1764 119.043 74.502L116.846 131.387L152.246 132.119H191.797C203.19 132.119 220.605 131.875 244.043 131.387C242.253 162.148 241.357 186.237 241.357 203.652C215.153 202.839 195.703 202.432 183.008 202.432C161.523 202.432 138.086 202.839 112.695 203.652L110.254 291.543L110.01 324.258V335L57.5195 334.512C53.4505 334.512 34.4076 334.674 0.390625 335ZM448.877 79.3848C469.059 79.3848 488.428 82.4772 506.982 88.6621C525.7 94.847 541.488 103.799 554.346 115.518C567.204 127.074 576.644 140.664 582.666 156.289C588.851 171.751 591.943 188.434 591.943 206.338C591.943 223.753 589.176 240.355 583.643 256.143C578.271 271.768 569.076 286.497 556.055 300.332C543.034 314.004 526.432 324.258 506.25 331.094C486.23 337.93 464.99 341.348 442.529 341.348C421.859 341.348 402.002 338.337 382.959 332.314C363.916 326.292 347.965 317.503 335.107 305.947C322.412 294.391 312.809 280.557 306.299 264.443C299.951 248.33 296.777 231.403 296.777 213.662C296.777 195.921 299.87 178.994 306.055 162.881C312.402 146.768 322.331 132.282 335.84 119.424C349.512 106.566 366.357 96.7188 386.377 89.8828C406.396 82.8841 427.23 79.3848 448.877 79.3848ZM447.168 151.162C436.751 151.162 427.474 153.848 419.336 159.219C411.198 164.59 405.013 172.484 400.781 182.9C396.712 193.154 394.678 204.385 394.678 216.592C394.678 234.495 399.154 248.249 408.105 257.852C417.057 267.292 428.288 272.012 441.797 272.012C452.051 272.012 461.247 269.326 469.385 263.955C477.523 258.421 483.626 250.365 487.695 239.785C491.927 229.043 494.043 217.568 494.043 205.361C494.043 195.27 492.415 186.156 489.16 178.018C485.905 169.88 480.534 163.369 473.047 158.486C465.723 153.604 457.096 151.162 447.168 151.162ZM628.076 335L635.645 226.602L638.086 164.346C638.249 153.115 638.33 141.641 638.33 129.922C638.33 118.04 638.167 103.311 637.842 85.7324C657.536 86.0579 673.161 86.2207 684.717 86.2207C698.226 86.2207 713.77 86.0579 731.348 85.7324L730.371 113.32C736.719 106.159 741.927 100.869 745.996 97.4512C750.065 93.8704 754.704 90.6966 759.912 87.9297C765.12 85 770.573 82.8841 776.27 81.582C781.966 80.1172 787.907 79.3848 794.092 79.3848C799.951 79.3848 806.462 80.1986 813.623 81.8262C813.786 99.5671 814.193 114.215 814.844 125.771L816.553 163.369C807.601 160.765 799.219 159.463 791.406 159.463C781.641 159.463 773.177 160.928 766.016 163.857C759.017 166.624 752.751 170.938 747.217 176.797C741.846 182.493 737.533 189.655 734.277 198.281C731.022 206.908 728.743 220.579 727.441 239.297C726.139 258.014 725.488 279.417 725.488 303.506C725.488 311.969 725.814 322.467 726.465 335C710.677 334.674 694.808 334.512 678.857 334.512C663.07 334.512 646.143 334.674 628.076 335ZM846.582 335C850.163 297.891 852.604 268.187 853.906 245.889C855.859 212.686 857.812 169.717 859.766 116.982C861.23 76.6178 861.963 47.7279 861.963 30.3125V1.74805C881.006 2.23633 897.445 2.48047 911.279 2.48047C924.626 2.48047 942.122 2.15495 963.77 1.50391C985.417 0.690104 1005.76 0.283203 1024.8 0.283203C1046.61 0.283203 1065.74 1.58529 1082.18 4.18945C1098.62 6.79362 1113.92 12.1647 1128.08 20.3027C1142.4 28.4408 1154.36 39.1016 1163.96 52.2852C1173.57 65.4688 1180.89 80.931 1185.94 98.6719C1190.98 116.25 1193.51 134.398 1193.51 153.115C1193.51 171.507 1191.55 189.248 1187.65 206.338C1183.74 223.265 1178.29 238.564 1171.29 252.236C1164.29 265.908 1156.07 277.708 1146.63 287.637C1137.35 297.402 1126.69 305.785 1114.65 312.783C1105.7 317.992 1096.66 322.061 1087.55 324.99C1078.43 327.92 1065.98 330.28 1050.2 332.07C1032.62 334.023 1012.68 335 990.381 335L891.748 334.268C882.471 334.268 867.415 334.512 846.582 335ZM952.051 261.514C961.003 262.327 970.361 262.734 980.127 262.734C996.729 262.734 1011.54 261.27 1024.56 258.34C1037.58 255.41 1048.97 249.144 1058.74 239.541C1068.67 229.938 1075.99 217.65 1080.71 202.676C1085.43 187.539 1087.79 172.077 1087.79 156.289C1087.79 136.921 1084.29 120.645 1077.29 107.461C1070.3 94.1146 1060.94 84.8372 1049.22 79.6289C1037.66 74.4206 1021.88 71.8164 1001.86 71.8164C990.137 71.8164 976.302 72.3047 960.352 73.2812L952.051 261.514ZM1503.08 335C1484.52 334.674 1469.06 334.512 1456.69 334.512C1441.39 334.512 1426.01 334.674 1410.55 335L1410.3 301.553C1404.44 308.877 1399.48 314.411 1395.41 318.154C1391.34 321.735 1386.87 324.909 1381.98 327.676C1377.26 330.443 1371.89 332.884 1365.87 335C1360.01 336.953 1353.17 338.499 1345.36 339.639C1337.71 340.778 1329.9 341.348 1321.92 341.348C1309.07 341.348 1296.86 339.801 1285.3 336.709C1273.91 333.779 1263.82 328.734 1255.03 321.572C1246.4 314.411 1240.46 306.273 1237.21 297.158C1234.11 288.044 1232.57 277.464 1232.57 265.42C1232.57 262.49 1232.81 257.933 1233.3 251.748L1237.21 196.328C1238.35 175.983 1239.4 153.441 1240.38 128.701C1241.03 113.564 1241.36 99.2415 1241.36 85.7324C1261.54 86.0579 1278.71 86.2207 1292.87 86.2207C1307.19 86.2207 1322.98 86.0579 1340.23 85.7324L1332.67 178.75C1331.53 192.91 1330.88 202.594 1330.71 207.803C1330.71 212.848 1330.71 216.266 1330.71 218.057C1330.71 235.146 1334.13 246.702 1340.97 252.725C1347.97 258.747 1356.27 261.758 1365.87 261.758C1369.78 261.758 1373.68 261.188 1377.59 260.049C1381.49 258.91 1385.24 257.282 1388.82 255.166C1391.91 253.213 1394.76 250.771 1397.36 247.842C1400.13 244.749 1402.57 241.006 1404.69 236.611C1407.29 231.24 1409.24 225.462 1410.55 219.277C1412.34 210.651 1413.72 199.746 1414.7 186.562C1415.35 176.96 1416.24 160.358 1417.38 136.758L1419.34 85.7324C1440.33 86.0579 1457.58 86.2207 1471.09 86.2207C1486.23 86.2207 1501.45 86.0579 1516.75 85.7324C1513 127.074 1510.07 166.38 1507.96 203.652C1505.84 240.924 1504.22 284.707 1503.08 335Z" fill="white"/>
</svg>
