<svg width="60" height="20" viewBox="0 0 60 20" fill="none" xmlns="http://www.w3.org/2000/svg">
<path d="M0 8.82949C0.0901624 7.95792 0.152418 7.25809 0.186765 6.72998C0.238287 5.94858 0.287662 4.87522 0.334888 3.5099C0.382117 2.14029 0.405732 1.21934 0.405732 0.74706V0.0386412C1.69806 0.047228 2.90022 0.0515215 4.01223 0.0515215C5.13283 0.0515215 6.21049 0.047228 7.24521 0.0386412C7.17651 1.02613 7.14217 1.6723 7.14217 1.97714L6.58185 1.95782L6.13104 1.95137L5.68025 1.94493H4.41152C4.26554 1.94493 3.83833 1.94923 3.12993 1.95782L3.07197 3.45838L4.00579 3.47769H5.0491C5.34964 3.47769 5.80903 3.47126 6.4273 3.45838C6.38008 4.26983 6.35644 4.90527 6.35644 5.36466C5.66521 5.34321 5.15214 5.33248 4.81726 5.33248C4.25051 5.33248 3.63226 5.34321 2.96247 5.36466L2.89808 7.68313L2.89165 8.54612V8.82949L1.507 8.81661C1.39966 8.81661 0.897333 8.82089 0 8.82949ZM11.8306 2.08662C12.363 2.08662 12.8739 2.16819 13.3634 2.33134C13.8571 2.4945 14.2736 2.73064 14.6128 3.03978C14.952 3.34461 15.201 3.7031 15.3598 4.11527C15.523 4.52314 15.6045 4.96322 15.6045 5.43551C15.6045 5.8949 15.5316 6.33285 15.3856 6.74932C15.2439 7.16149 15.0013 7.55003 14.6579 7.91498C14.3144 8.27563 13.8764 8.54612 13.344 8.72645C12.8159 8.90678 12.2557 8.99694 11.6632 8.99694C11.1179 8.99694 10.5941 8.91751 10.0918 8.75863C9.58943 8.59978 9.16865 8.36793 8.82947 8.0631C8.49459 7.75826 8.24128 7.39333 8.06955 6.96826C7.90209 6.54322 7.81837 6.0967 7.81837 5.62871C7.81837 5.16072 7.89996 4.71421 8.06311 4.28916C8.23054 3.86412 8.49246 3.48199 8.84881 3.14281C9.20946 2.80363 9.65382 2.54387 10.1819 2.36355C10.71 2.17893 11.2596 2.08662 11.8306 2.08662ZM11.7855 3.98003C11.5107 3.98003 11.266 4.05088 11.0513 4.19256C10.8367 4.33424 10.6735 4.54248 10.5619 4.81724C10.4546 5.08773 10.4009 5.384 10.4009 5.706C10.4009 6.17827 10.519 6.54108 10.7551 6.7944C10.9912 7.04342 11.2875 7.16793 11.6438 7.16793C11.9143 7.16793 12.1569 7.09707 12.3716 6.95539C12.5863 6.80941 12.7473 6.5969 12.8546 6.31781C12.9662 6.03445 13.022 5.73175 13.022 5.40974C13.022 5.14355 12.9791 4.90313 12.8932 4.68846C12.8074 4.47379 12.6657 4.30204 12.4682 4.17323C12.275 4.04444 12.0474 3.98003 11.7855 3.98003ZM16.5577 8.82949L16.7574 5.97006L16.8217 4.32781C16.826 4.03155 16.8282 3.72887 16.8282 3.41974C16.8282 3.1063 16.8239 2.71777 16.8153 2.25406C17.3348 2.26265 17.747 2.26694 18.0518 2.26694C18.4082 2.26694 18.8182 2.26265 19.2819 2.25406L19.2561 2.98179C19.4236 2.79289 19.561 2.65335 19.6683 2.56319C19.7756 2.46873 19.898 2.38501 20.0354 2.31202C20.1728 2.23474 20.3166 2.17893 20.4669 2.14458C20.6172 2.10594 20.7739 2.08662 20.937 2.08662C21.0916 2.08662 21.2633 2.10809 21.4522 2.15102C21.4565 2.61901 21.4673 3.0054 21.4844 3.31024L21.5295 4.30204C21.2934 4.23334 21.0723 4.199 20.8662 4.199C20.6086 4.199 20.3853 4.23764 20.1964 4.31491C20.0118 4.3879 19.8465 4.5017 19.7005 4.65625C19.5588 4.80651 19.4451 4.99543 19.3592 5.22298C19.2733 5.45055 19.2132 5.81118 19.1788 6.30494C19.1445 6.79867 19.1273 7.36326 19.1273 7.99871C19.1273 8.22195 19.1359 8.49888 19.1531 8.82949C18.7366 8.82089 18.318 8.81661 17.8972 8.81661C17.4808 8.81661 17.0343 8.82089 16.5577 8.82949ZM22.3217 8.82949C22.4161 7.85059 22.4805 7.06703 22.5149 6.47883C22.5664 5.60297 22.6179 4.46949 22.6694 3.07839C22.7081 2.01363 22.7274 1.25154 22.7274 0.792142V0.0386412C23.2297 0.0515215 23.6634 0.0579616 24.0283 0.0579616C24.3804 0.0579616 24.8419 0.0493748 25.413 0.032201C25.984 0.0107336 26.5206 0 27.0229 0C27.5982 0 28.1028 0.0343477 28.5365 0.103043C28.9702 0.171738 29.3738 0.313422 29.7473 0.528094C30.125 0.742768 30.4405 1.02399 30.6938 1.37176C30.9473 1.71953 31.1404 2.12741 31.2736 2.59539C31.4065 3.05908 31.4733 3.53781 31.4733 4.03155C31.4733 4.51671 31.4216 4.9847 31.3187 5.43551C31.2155 5.88203 31.0718 6.2856 30.8871 6.64626C30.7025 7.00691 30.4856 7.31818 30.2366 7.5801C29.9918 7.83769 29.7106 8.05882 29.393 8.24342C29.1569 8.38083 28.9185 8.48817 28.6781 8.56543C28.4376 8.64272 28.1091 8.70498 27.6929 8.75219C27.2291 8.80371 26.7032 8.82949 26.1149 8.82949L23.5131 8.81018C23.2684 8.81018 22.8712 8.81661 22.3217 8.82949ZM25.1038 6.891C25.34 6.91245 25.5868 6.92318 25.8444 6.92318C26.2824 6.92318 26.6731 6.88456 27.0165 6.80727C27.36 6.72998 27.6604 6.56469 27.9182 6.31137C28.1801 6.05806 28.3732 5.73391 28.4977 5.33891C28.6222 4.93962 28.6845 4.53174 28.6845 4.11527C28.6845 3.60436 28.5922 3.17502 28.4075 2.82724C28.2231 2.47518 27.9762 2.23045 27.667 2.09306C27.3621 1.95567 26.9458 1.88697 26.4177 1.88697C26.1085 1.88697 25.7435 1.89985 25.3228 1.92561L25.1038 6.891ZM39.6394 8.82949C39.1498 8.82089 38.742 8.81661 38.4157 8.81661C38.0121 8.81661 37.6064 8.82089 37.1986 8.82949L37.192 7.94719C37.0374 8.14039 36.9065 8.28637 36.7992 8.3851C36.6918 8.47957 36.5739 8.56329 36.4449 8.63629C36.3204 8.70928 36.1787 8.77367 36.0199 8.82949C35.8654 8.881 35.6849 8.92179 35.4789 8.95186C35.2771 8.9819 35.0711 8.99694 34.8606 8.99694C34.5216 8.99694 34.1995 8.95613 33.8946 8.87457C33.5941 8.79728 33.328 8.66419 33.0961 8.47527C32.8684 8.28637 32.7118 8.0717 32.626 7.83125C32.5442 7.59083 32.5036 7.31174 32.5036 6.99404C32.5036 6.91675 32.51 6.79654 32.5229 6.63338L32.626 5.17146C32.6561 4.63478 32.6838 4.04015 32.7096 3.38753C32.7268 2.98823 32.7355 2.61042 32.7355 2.25406C33.2678 2.26265 33.7207 2.26694 34.0943 2.26694C34.472 2.26694 34.8885 2.26265 35.3436 2.25406L35.1442 4.70777C35.1141 5.0813 35.0969 5.33675 35.0925 5.47416C35.0925 5.60724 35.0925 5.6974 35.0925 5.74465C35.0925 6.19544 35.1827 6.50027 35.3631 6.65916C35.5478 6.81801 35.7667 6.89744 36.0199 6.89744C36.1231 6.89744 36.226 6.8824 36.3291 6.85236C36.432 6.82231 36.5309 6.77936 36.6253 6.72355C36.7068 6.67203 36.782 6.60761 36.8506 6.53035C36.9237 6.44876 36.988 6.35002 37.044 6.23408C37.1126 6.0924 37.164 5.93999 37.1986 5.77683C37.2458 5.54929 37.2822 5.26162 37.308 4.91384C37.3252 4.66055 37.3486 4.22261 37.3787 3.60006L37.4304 2.25406C37.9841 2.26265 38.4392 2.26694 38.7955 2.26694C39.1949 2.26694 39.5964 2.26265 40 2.25406C39.9011 3.34461 39.8238 4.38146 39.7681 5.36466C39.7122 6.34786 39.6695 7.50281 39.6394 8.82949Z" fill="white"/>
</svg>
