<svg width="179" height="42" viewBox="0 0 179 42" fill="none" xmlns="http://www.w3.org/2000/svg">
<g filter="url(#filter0_d_228_5)">
<path d="M10.2549 26L8.70215 21.1953L5.20117 11.0439C6.31445 11.0635 7.34961 11.0732 8.30664 11.0732C9.30273 11.0732 10.2402 11.0635 11.1191 11.0439C11.2852 11.7178 11.6123 12.8994 12.1006 14.5889C12.5889 16.2686 13.126 18.2705 13.7119 20.5947L14.0928 19.3789C14.1514 19.2324 14.3809 18.6074 14.7812 17.5039L17.1104 11.0439C18.165 11.0635 19.1611 11.0732 20.0986 11.0732C21.0654 11.0732 22.0713 11.0635 23.1162 11.0439L21.0947 15.3945L17.3301 24.0371L16.5244 26C15.3721 25.9805 14.3564 25.9707 13.4775 25.9707C12.5205 25.9707 11.4463 25.9805 10.2549 26ZM24.7568 9.18359C24.8154 8.02148 24.8447 7.10352 24.8447 6.42969C24.8447 6.23438 24.8398 5.9707 24.8301 5.63867C26.0117 5.6582 27.0029 5.66797 27.8037 5.66797C28.9072 5.66797 29.874 5.6582 30.7041 5.63867C30.6748 5.94141 30.6553 6.19531 30.6455 6.40039L30.5576 8.2168C30.5381 8.49023 30.5283 8.8125 30.5283 9.18359C29.5615 9.16406 28.6338 9.1543 27.7451 9.1543C26.8271 9.1543 25.8311 9.16406 24.7568 9.18359ZM23.834 26C23.9707 24.8086 24.0732 23.8271 24.1416 23.0557C24.21 22.2842 24.2734 21.2979 24.332 20.0967C24.4004 18.8955 24.459 17.5674 24.5078 16.1123C24.5566 14.6572 24.5957 12.9678 24.625 11.0439C25.8945 11.0635 26.9102 11.0732 27.6719 11.0732C28.3652 11.0732 29.3613 11.0635 30.6602 11.0439C30.4941 12.8896 30.3721 14.5107 30.2939 15.9072C30.2256 17.3037 30.1816 18.7832 30.1621 20.3457C30.123 23.1191 30.1035 25.0039 30.1035 26C28.9414 25.9805 27.9404 25.9707 27.1006 25.9707C26.2705 25.9707 25.1816 25.9805 23.834 26ZM33.1797 25.7217C33.1406 25.292 33.1016 24.8428 33.0625 24.374C33.0234 23.8955 32.96 23.2412 32.8721 22.4111L32.7549 21.3564C33.7021 21.7275 34.5176 22.0059 35.2012 22.1914C35.8848 22.3672 36.5146 22.4551 37.0908 22.4551C37.5693 22.4551 37.9551 22.4111 38.248 22.3232C38.5508 22.2354 38.7705 22.1084 38.9072 21.9424C39.0439 21.7764 39.1123 21.6055 39.1123 21.4297C39.1123 21.2734 39.0586 21.1221 38.9512 20.9756C38.8535 20.8193 38.624 20.6094 38.2627 20.3457C37.4619 19.7598 36.7539 19.2275 36.1387 18.749C35.5332 18.2705 35.0742 17.8457 34.7617 17.4746C34.459 17.1035 34.2246 16.7031 34.0586 16.2734C33.9023 15.8438 33.8242 15.3994 33.8242 14.9404C33.8242 14.1299 34.0537 13.373 34.5127 12.6699C34.9814 11.9668 35.665 11.459 36.5635 11.1465C37.4717 10.8242 38.5752 10.6631 39.874 10.6631C41.2314 10.6631 42.9648 10.8389 45.0742 11.1904L45.3086 15.3066C44.127 14.8379 42.9893 14.6035 41.8955 14.6035C41.124 14.6035 40.5625 14.6816 40.2109 14.8379C39.8691 14.9941 39.6982 15.2334 39.6982 15.5557C39.6982 15.6631 39.7178 15.7656 39.7568 15.8633C39.7959 15.9609 39.8643 16.0635 39.9619 16.1709C40.0693 16.2783 40.1963 16.3906 40.3428 16.5078C40.499 16.6152 40.8701 16.874 41.4561 17.2842C42.042 17.6943 42.501 18.0312 42.833 18.2949C43.3799 18.7246 43.7949 19.125 44.0781 19.4961C44.3711 19.8574 44.5908 20.248 44.7373 20.668C44.8936 21.0781 44.9717 21.5127 44.9717 21.9717C44.9717 22.665 44.8008 23.3047 44.459 23.8906C44.127 24.4668 43.6191 24.9502 42.9355 25.3408C42.2617 25.7314 41.5293 26 40.7383 26.1465C39.9473 26.3027 39.1318 26.3809 38.292 26.3809C37.7256 26.3809 37.0127 26.332 36.1533 26.2344C35.3037 26.1367 34.3125 25.9658 33.1797 25.7217ZM48.6338 9.18359C48.6924 8.02148 48.7217 7.10352 48.7217 6.42969C48.7217 6.23438 48.7168 5.9707 48.707 5.63867C49.8887 5.6582 50.8799 5.66797 51.6807 5.66797C52.7842 5.66797 53.751 5.6582 54.5811 5.63867C54.5518 5.94141 54.5322 6.19531 54.5225 6.40039L54.4346 8.2168C54.415 8.49023 54.4053 8.8125 54.4053 9.18359C53.4385 9.16406 52.5107 9.1543 51.6221 9.1543C50.7041 9.1543 49.708 9.16406 48.6338 9.18359ZM47.7109 26C47.8477 24.8086 47.9502 23.8271 48.0186 23.0557C48.0869 22.2842 48.1504 21.2979 48.209 20.0967C48.2773 18.8955 48.3359 17.5674 48.3848 16.1123C48.4336 14.6572 48.4727 12.9678 48.502 11.0439C49.7715 11.0635 50.7871 11.0732 51.5488 11.0732C52.2422 11.0732 53.2383 11.0635 54.5371 11.0439C54.3711 12.8896 54.249 14.5107 54.1709 15.9072C54.1025 17.3037 54.0586 18.7832 54.0391 20.3457C54 23.1191 53.9805 25.0039 53.9805 26C52.8184 25.9805 51.8174 25.9707 50.9775 25.9707C50.1475 25.9707 49.0586 25.9805 47.7109 26ZM68.0723 21.6934C67.8965 22.5137 67.7451 23.3145 67.6182 24.0957L67.2959 25.8828C66.3291 26.0977 65.5723 26.2344 65.0254 26.293C64.4883 26.3516 63.9658 26.3809 63.458 26.3809C62.6279 26.3809 61.8906 26.3076 61.2461 26.1611C60.6016 26.0244 60.0645 25.7705 59.6348 25.3994C59.2051 25.0186 58.9121 24.584 58.7559 24.0957C58.5996 23.6074 58.5215 23.0898 58.5215 22.543C58.5215 22.4453 58.5264 22.2744 58.5361 22.0303C58.5459 21.7764 58.5801 21.2197 58.6387 20.3604L58.9609 15.292H56.6758C56.7246 14.6182 56.7686 13.7295 56.8076 12.626L56.8516 11.2637H59.2832C59.3418 10.8145 59.415 9.83301 59.5029 8.31934L62.0078 7.80664C62.4668 7.71875 63.4434 7.49414 64.9375 7.13281C64.8691 8.41211 64.8203 9.78906 64.791 11.2637H68.1309C68.0527 13.2949 68.0137 14.6377 68.0137 15.292H64.6445L64.4688 18.9541C64.4492 19.501 64.4395 19.8525 64.4395 20.0088C64.4395 20.4775 64.4883 20.8682 64.5859 21.1807C64.6934 21.4932 64.874 21.7178 65.1279 21.8545C65.3916 21.9912 65.6797 22.0596 65.9922 22.0596C66.2266 22.0596 66.4707 22.0449 66.7246 22.0156C66.9785 21.9766 67.4277 21.8691 68.0723 21.6934ZM77.3301 25.7217C77.291 25.292 77.252 24.8428 77.2129 24.374C77.1738 23.8955 77.1104 23.2412 77.0225 22.4111L76.9053 21.3564C77.8525 21.7275 78.668 22.0059 79.3516 22.1914C80.0352 22.3672 80.665 22.4551 81.2412 22.4551C81.7197 22.4551 82.1055 22.4111 82.3984 22.3232C82.7012 22.2354 82.9209 22.1084 83.0576 21.9424C83.1943 21.7764 83.2627 21.6055 83.2627 21.4297C83.2627 21.2734 83.209 21.1221 83.1016 20.9756C83.0039 20.8193 82.7744 20.6094 82.4131 20.3457C81.6123 19.7598 80.9043 19.2275 80.2891 18.749C79.6836 18.2705 79.2246 17.8457 78.9121 17.4746C78.6094 17.1035 78.375 16.7031 78.209 16.2734C78.0527 15.8438 77.9746 15.3994 77.9746 14.9404C77.9746 14.1299 78.2041 13.373 78.6631 12.6699C79.1318 11.9668 79.8154 11.459 80.7139 11.1465C81.6221 10.8242 82.7256 10.6631 84.0244 10.6631C85.3818 10.6631 87.1152 10.8389 89.2246 11.1904L89.459 15.3066C88.2773 14.8379 87.1396 14.6035 86.0459 14.6035C85.2744 14.6035 84.7129 14.6816 84.3613 14.8379C84.0195 14.9941 83.8486 15.2334 83.8486 15.5557C83.8486 15.6631 83.8682 15.7656 83.9072 15.8633C83.9463 15.9609 84.0146 16.0635 84.1123 16.1709C84.2197 16.2783 84.3467 16.3906 84.4932 16.5078C84.6494 16.6152 85.0205 16.874 85.6064 17.2842C86.1924 17.6943 86.6514 18.0312 86.9834 18.2949C87.5303 18.7246 87.9453 19.125 88.2285 19.4961C88.5215 19.8574 88.7412 20.248 88.8877 20.668C89.0439 21.0781 89.1221 21.5127 89.1221 21.9717C89.1221 22.665 88.9512 23.3047 88.6094 23.8906C88.2773 24.4668 87.7695 24.9502 87.0859 25.3408C86.4121 25.7314 85.6797 26 84.8887 26.1465C84.0977 26.3027 83.2822 26.3809 82.4424 26.3809C81.876 26.3809 81.1631 26.332 80.3037 26.2344C79.4541 26.1367 78.4629 25.9658 77.3301 25.7217ZM92.7842 9.18359C92.8428 8.02148 92.8721 7.10352 92.8721 6.42969C92.8721 6.23438 92.8672 5.9707 92.8574 5.63867C94.0391 5.6582 95.0303 5.66797 95.8311 5.66797C96.9346 5.66797 97.9014 5.6582 98.7314 5.63867C98.7021 5.94141 98.6826 6.19531 98.6729 6.40039L98.585 8.2168C98.5654 8.49023 98.5557 8.8125 98.5557 9.18359C97.5889 9.16406 96.6611 9.1543 95.7725 9.1543C94.8545 9.1543 93.8584 9.16406 92.7842 9.18359ZM91.8613 26C91.998 24.8086 92.1006 23.8271 92.1689 23.0557C92.2373 22.2842 92.3008 21.2979 92.3594 20.0967C92.4277 18.8955 92.4863 17.5674 92.5352 16.1123C92.584 14.6572 92.623 12.9678 92.6523 11.0439C93.9219 11.0635 94.9375 11.0732 95.6992 11.0732C96.3926 11.0732 97.3887 11.0635 98.6875 11.0439C98.5215 12.8896 98.3994 14.5107 98.3213 15.9072C98.2529 17.3037 98.209 18.7832 98.1895 20.3457C98.1504 23.1191 98.1309 25.0039 98.1309 26C96.9688 25.9805 95.9678 25.9707 95.1279 25.9707C94.2979 25.9707 93.209 25.9805 91.8613 26ZM112.223 21.6934C112.047 22.5137 111.896 23.3145 111.769 24.0957L111.446 25.8828C110.479 26.0977 109.723 26.2344 109.176 26.293C108.639 26.3516 108.116 26.3809 107.608 26.3809C106.778 26.3809 106.041 26.3076 105.396 26.1611C104.752 26.0244 104.215 25.7705 103.785 25.3994C103.355 25.0186 103.062 24.584 102.906 24.0957C102.75 23.6074 102.672 23.0898 102.672 22.543C102.672 22.4453 102.677 22.2744 102.687 22.0303C102.696 21.7764 102.73 21.2197 102.789 20.3604L103.111 15.292H100.826C100.875 14.6182 100.919 13.7295 100.958 12.626L101.002 11.2637H103.434C103.492 10.8145 103.565 9.83301 103.653 8.31934L106.158 7.80664C106.617 7.71875 107.594 7.49414 109.088 7.13281C109.02 8.41211 108.971 9.78906 108.941 11.2637H112.281C112.203 13.2949 112.164 14.6377 112.164 15.292H108.795L108.619 18.9541C108.6 19.501 108.59 19.8525 108.59 20.0088C108.59 20.4775 108.639 20.8682 108.736 21.1807C108.844 21.4932 109.024 21.7178 109.278 21.8545C109.542 21.9912 109.83 22.0596 110.143 22.0596C110.377 22.0596 110.621 22.0449 110.875 22.0156C111.129 21.9766 111.578 21.8691 112.223 21.6934ZM128.6 21.5762C128.473 22.1621 128.229 23.5781 127.867 25.8242C126.734 26.0488 125.782 26.1953 125.011 26.2637C124.239 26.3418 123.458 26.3809 122.667 26.3809C121.505 26.3809 120.436 26.2979 119.459 26.1318C118.482 25.9756 117.638 25.6924 116.925 25.2822C116.222 24.8721 115.631 24.3643 115.152 23.7588C114.674 23.1436 114.308 22.416 114.054 21.5762C113.81 20.7363 113.688 19.8721 113.688 18.9834C113.688 17.7334 113.937 16.5127 114.435 15.3213C114.933 14.1201 115.572 13.1826 116.354 12.5088C117.145 11.835 118.053 11.3564 119.078 11.0732C120.104 10.79 121.153 10.6484 122.228 10.6484C123.341 10.6484 124.4 10.7803 125.406 11.0439C126.422 11.2979 127.281 11.7471 127.984 12.3916C128.688 13.0361 129.186 13.7637 129.479 14.5742C129.781 15.3848 129.933 16.2588 129.933 17.1963C129.933 17.7529 129.869 18.373 129.742 19.0566L119.474 19.0713C119.464 19.2275 119.459 19.3691 119.459 19.4961C119.459 20.5508 119.835 21.3271 120.587 21.8252C121.339 22.3232 122.257 22.5723 123.341 22.5723C123.985 22.5723 124.718 22.499 125.538 22.3525C126.368 22.1963 127.389 21.9375 128.6 21.5762ZM119.591 16.8301H124.425C124.435 16.6641 124.439 16.5225 124.439 16.4053C124.439 15.8975 124.347 15.4629 124.161 15.1016C123.985 14.7402 123.727 14.4766 123.385 14.3105C123.053 14.1445 122.677 14.0615 122.257 14.0615C121.964 14.0615 121.681 14.1104 121.407 14.208C121.134 14.2959 120.885 14.4326 120.66 14.6182C120.445 14.7939 120.265 14.999 120.118 15.2334C119.972 15.4678 119.864 15.6973 119.796 15.9219C119.728 16.1367 119.659 16.4395 119.591 16.8301ZM158.433 19.25C158.733 18.61 159.023 18.05 159.303 17.57C159.603 17.09 159.893 16.69 160.173 16.37H142.683V15.11H160.173C159.893 14.77 159.603 14.36 159.303 13.88C159.023 13.4 158.733 12.85 158.433 12.23H159.483C160.743 13.69 162.063 14.77 163.443 15.47V16.01C162.063 16.69 160.743 17.77 159.483 19.25H158.433Z" fill="white"/>
</g>
<defs>
<filter id="filter0_d_228_5" x="0.201172" y="0.638672" width="178.242" height="40.7422" filterUnits="userSpaceOnUse" color-interpolation-filters="sRGB">
<feFlood flood-opacity="0" result="BackgroundImageFix"/>
<feColorMatrix in="SourceAlpha" type="matrix" values="0 0 0 0 0 0 0 0 0 0 0 0 0 0 0 0 0 0 127 0" result="hardAlpha"/>
<feOffset dx="5" dy="5"/>
<feGaussianBlur stdDeviation="5"/>
<feComposite in2="hardAlpha" operator="out"/>
<feColorMatrix type="matrix" values="0 0 0 0 0 0 0 0 0 0 0 0 0 0 0 0 0 0 0.7 0"/>
<feBlend mode="normal" in2="BackgroundImageFix" result="effect1_dropShadow_228_5"/>
<feBlend mode="normal" in="SourceGraphic" in2="effect1_dropShadow_228_5" result="shape"/>
</filter>
</defs>
</svg>
