<svg width="900" height="200" viewBox="0 0 1859 347" fill="none" xmlns="http://www.w3.org/2000/svg">
<path d="M0.798828 340C1.44987 332.35 1.93815 322.259 2.26367 309.727C2.75195 297.031 3.32161 284.092 3.97266 270.908C20.8997 257.074 36.4434 243.646 50.6035 230.625C73.5527 209.466 93.8978 189.609 111.639 171.055C125.799 156.243 137.68 142.653 147.283 130.283C152.817 122.959 156.479 116.855 158.27 111.973C159.572 108.555 160.223 105.055 160.223 101.475C160.223 96.7546 159.165 92.6855 157.049 89.2676C154.933 85.6868 151.596 82.6758 147.039 80.2344C142.482 77.793 136.948 75.8398 130.438 74.375C123.927 72.9102 116.521 72.1777 108.221 72.1777C96.8275 72.1777 84.7832 73.1543 72.0879 75.1074C59.5553 77.0605 42.3841 80.804 20.5742 86.3379L26.9219 51.4258C28.3867 44.4271 30.5026 30.9993 33.2695 11.1426C76.0755 3.98112 116.196 0.400391 153.631 0.400391C170.721 0.400391 187.078 1.94661 202.703 5.03906C218.328 8.13151 232.326 13.4212 244.695 20.9082C257.065 28.2324 266.342 36.8587 272.527 46.7871C278.712 56.5527 281.805 67.1322 281.805 78.5254C281.805 86.0124 280.91 93.418 279.119 100.742C277.329 107.741 273.992 115.96 269.109 125.4C262.924 137.119 255.275 148.675 246.16 160.068C232.651 177.158 217.026 194.818 199.285 213.047C182.358 230.299 162.013 249.668 138.25 271.152L165.105 271.396C171.453 271.396 183.986 271.234 202.703 270.908C221.583 270.583 234.686 270.257 242.01 269.932C249.334 269.606 258.367 268.874 269.109 267.734C268.621 275.547 267.807 285.312 266.668 297.031C265.691 308.75 264.633 323.073 263.494 340C222.967 339.674 180.568 339.512 136.297 339.512C82.9115 339.512 37.7454 339.674 0.798828 340ZM340.398 333.408C338.283 300.368 336.167 274.082 334.051 254.551C370.346 266.758 403.143 272.861 432.439 272.861C450.506 272.861 465.073 269.281 476.141 262.119C487.371 254.795 492.986 245.029 492.986 232.822C492.986 220.941 487.29 212.233 475.896 206.699C464.666 201.165 447.088 198.398 423.162 198.398C407.7 198.398 393.54 199.294 380.682 201.084C382.96 175.693 384.832 150.71 386.297 126.133C398.016 128.249 410.304 129.307 423.162 129.307C437.811 129.307 449.936 128.411 459.539 126.621C469.305 124.668 476.71 121.006 481.756 115.635C486.801 110.101 489.324 104.16 489.324 97.8125C489.324 92.1159 487.29 86.9889 483.221 82.4316C479.314 77.8743 473.374 74.7005 465.398 72.9102C457.423 70.957 447.495 69.9805 435.613 69.9805C425.359 69.9805 414.454 70.5501 402.898 71.6895C391.342 72.8288 375.636 75.4329 355.779 79.502L367.986 22.8613C368.963 17.8158 369.939 12.4447 370.916 6.74805C406.235 2.51628 438.624 0.400391 468.084 0.400391C487.29 0.400391 505.763 1.70247 523.504 4.30664C541.245 6.91081 556.382 11.7122 568.914 18.7109C581.609 25.5469 590.887 34.4987 596.746 45.5664C602.768 56.6341 605.779 69.0853 605.779 82.9199C605.779 91.2207 604.64 99.196 602.361 106.846C600.245 114.495 596.909 121.657 592.352 128.33C587.794 134.84 582.423 140.618 576.238 145.664C570.053 150.71 564.031 154.779 558.172 157.871C552.312 160.964 544.5 164.463 534.734 168.369C544.988 170.485 552.964 172.682 558.66 174.961C564.52 177.24 570.379 180.576 576.238 184.971C582.098 189.202 587.062 194.248 591.131 200.107C595.2 205.804 598.211 212.233 600.164 219.395C602.117 226.556 603.094 234.206 603.094 242.344C603.094 258.457 599.35 273.35 591.863 287.021C584.539 300.693 573.634 312.087 559.148 321.201C544.826 330.153 528.305 336.582 509.588 340.488C491.033 344.395 472.316 346.348 453.436 346.348C435.044 346.348 417.465 345.371 400.701 343.418C384.1 341.628 363.999 338.291 340.398 333.408ZM805.242 0.400391C831.447 0.400391 855.047 5.52734 876.043 15.7812C897.202 26.0352 913.641 43.6133 925.359 68.5156C937.241 93.2552 943.182 122.471 943.182 156.162C943.182 182.529 939.52 208.652 932.195 234.531C925.034 260.41 915.187 281.243 902.654 297.031C890.285 312.656 873.927 324.782 853.582 333.408C833.237 342.035 811.508 346.348 788.396 346.348C768.702 346.348 750.229 343.174 732.977 336.826C715.724 330.479 700.587 320.143 687.566 305.82C674.546 291.497 665.431 274.57 660.223 255.039C655.014 235.345 652.41 214.349 652.41 192.051C652.41 165.033 655.991 138.503 663.152 112.461C670.477 86.4193 680.649 65.179 693.67 48.7402C706.691 32.3014 723.048 20.1758 742.742 12.3633C762.436 4.38802 783.27 0.400391 805.242 0.400391ZM803.533 72.666C795.883 72.666 789.048 74.9447 783.025 79.502C775.701 85.0358 769.923 92.6042 765.691 102.207C760.483 113.763 756.577 127.028 753.973 142.002C751.043 158.441 749.578 176.507 749.578 196.201C749.578 213.454 751.206 227.777 754.461 239.17C757.716 250.4 762.599 259.108 769.109 265.293C775.783 271.478 783.514 274.57 792.303 274.57C797.186 274.57 801.906 273.512 806.463 271.396C811.183 269.281 816.066 265.049 821.111 258.701C826.32 252.354 830.877 243.239 834.783 231.357C838.689 219.476 841.538 207.106 843.328 194.248C845.118 181.227 846.014 168.044 846.014 154.697C846.014 127.028 842.189 106.439 834.539 92.9297C826.889 79.4206 816.554 72.666 803.533 72.666ZM1049.63 169.102C1040.19 164.544 1033.19 160.719 1028.63 157.627C1024.24 154.372 1019.92 150.465 1015.69 145.908C1011.62 141.351 1008.2 136.305 1005.44 130.771C1002.67 125.238 1000.72 119.541 999.578 113.682C998.439 107.822 997.869 101.963 997.869 96.1035C997.869 80.3158 1001.45 66.0742 1008.61 53.3789C1015.77 40.6836 1026.35 30.2669 1040.35 22.1289C1054.35 13.8281 1069.32 8.13151 1085.27 5.03906C1101.22 1.94661 1117.99 0.400391 1135.56 0.400391C1152.33 0.400391 1168.52 2.35352 1184.15 6.25977C1199.77 10.0033 1213.12 15.944 1224.19 24.082C1235.42 32.2201 1243.64 41.5788 1248.85 52.1582C1254.05 62.5749 1256.66 75.1074 1256.66 89.7559C1256.66 96.7546 1255.93 103.509 1254.46 110.02C1253.16 116.53 1251.04 122.552 1248.11 128.086C1245.18 133.457 1241.6 138.421 1237.37 142.979C1233.14 147.536 1228.66 151.523 1223.94 154.941C1219.22 158.359 1211.33 162.835 1200.26 168.369C1210.68 171.299 1218.65 173.984 1224.19 176.426C1229.72 178.704 1235.01 181.96 1240.06 186.191C1245.26 190.26 1249.66 195.143 1253.24 200.84C1256.98 206.374 1259.67 212.314 1261.3 218.662C1262.92 225.01 1263.74 231.683 1263.74 238.682C1263.74 254.958 1259.75 270.501 1251.78 285.312C1243.8 300.124 1232.9 312.005 1219.06 320.957C1205.39 329.909 1189.44 336.338 1171.21 340.244C1152.98 344.313 1134.34 346.348 1115.3 346.348C1097.07 346.348 1079.49 344.557 1062.57 340.977C1045.8 337.396 1030.83 331.455 1017.64 323.154C1004.46 314.691 994.858 304.762 988.836 293.369C982.814 281.976 979.803 269.036 979.803 254.551C979.803 246.087 980.861 237.868 982.977 229.893C985.255 221.917 988.592 214.43 992.986 207.432C997.544 200.27 1002.75 194.329 1008.61 189.609C1014.47 184.727 1020.17 180.983 1025.7 178.379C1031.4 175.612 1039.37 172.52 1049.63 169.102ZM1129.71 67.7832C1116.85 67.7832 1106.67 71.3639 1099.19 78.5254C1091.7 85.6868 1087.96 94.4759 1087.96 104.893C1087.96 111.077 1089.58 116.774 1092.84 121.982C1096.1 127.191 1100.65 131.097 1106.51 133.701C1112.37 136.143 1118.72 137.363 1125.55 137.363C1137.44 137.363 1147.36 133.945 1155.34 127.109C1163.32 120.111 1167.3 111.077 1167.3 100.01C1167.3 90.2441 1163.88 82.4316 1157.05 76.5723C1150.38 70.7129 1141.26 67.7832 1129.71 67.7832ZM1123.85 201.816C1109.2 201.816 1097.72 205.56 1089.42 213.047C1081.28 220.371 1077.21 229.893 1077.21 241.611C1077.21 248.447 1079.01 254.795 1082.59 260.654C1086.33 266.514 1091.62 270.99 1098.46 274.082C1105.45 277.012 1113.02 278.477 1121.16 278.477C1129.62 278.477 1137.27 276.849 1144.11 273.594C1151.11 270.339 1156.64 265.537 1160.71 259.189C1164.78 252.679 1166.81 245.273 1166.81 236.973C1166.81 225.905 1162.99 217.279 1155.34 211.094C1147.85 204.909 1137.35 201.816 1123.85 201.816ZM1407.05 340C1409.16 314.772 1411.85 274.001 1415.11 217.686C1418.36 161.37 1420.23 121.087 1420.72 96.8359C1414.7 100.579 1408.84 104.323 1403.14 108.066C1397.45 111.647 1385.08 120.273 1366.03 133.945C1367.01 120.111 1367.9 103.916 1368.72 85.3613C1369.53 66.6439 1369.94 52.8906 1369.94 44.1016C1378.24 39.3815 1387.6 33.7663 1398.02 27.2559C1408.6 20.7454 1415.02 16.6764 1417.3 15.0488C1419.74 13.2585 1423.32 10.4915 1428.04 6.74805C1442.53 7.07357 1459.21 7.23633 1478.09 7.23633C1496 7.23633 1514.31 7.07357 1533.03 6.74805L1528.14 61.1914L1517.64 241.855L1515.2 308.262V340C1501.37 339.674 1484.52 339.512 1464.67 339.512C1441.55 339.512 1422.35 339.674 1407.05 340ZM1732.73 340C1734.85 314.772 1737.53 274.001 1740.79 217.686C1744.04 161.37 1745.92 121.087 1746.4 96.8359C1740.38 100.579 1734.52 104.323 1728.83 108.066C1723.13 111.647 1710.76 120.273 1691.72 133.945C1692.69 120.111 1693.59 103.916 1694.4 85.3613C1695.22 66.6439 1695.62 52.8906 1695.62 44.1016C1703.92 39.3815 1713.28 33.7663 1723.7 27.2559C1734.28 20.7454 1740.71 16.6764 1742.99 15.0488C1745.43 13.2585 1749.01 10.4915 1753.73 6.74805C1768.21 7.07357 1784.9 7.23633 1803.78 7.23633C1821.68 7.23633 1839.99 7.07357 1858.71 6.74805L1853.83 61.1914L1843.33 241.855L1840.89 308.262V340C1827.05 339.674 1810.21 339.512 1790.35 339.512C1767.24 339.512 1748.03 339.674 1732.73 340Z" fill="white"/>
</svg>
