<svg width="900" height="200" viewBox="0 0 2800 100" fill="none" xmlns="http://www.w3.org/2000/svg">
<path d="M0.390625 335L9.91211 201.699L14.3066 104.531L15.5273 61.3184C15.8529 48.7858 16.0156 36.7415 16.0156 25.1855L15.7715 1.74805C41.3249 2.07357 60.4492 2.23633 73.1445 2.23633C83.0729 2.23633 100.326 2.07357 124.902 1.74805C120.996 48.4603 118.473 89.7201 117.334 125.527L250.146 125.283C250.96 111.937 251.693 93.9518 252.344 71.3281C253.158 48.5417 253.564 32.998 253.564 24.6973C253.564 20.3027 253.402 12.653 253.076 1.74805L310.938 2.23633C316.96 2.23633 334.049 2.07357 362.207 1.74805C356.348 85.4069 352.604 147.663 350.977 188.516C349.349 229.206 348.535 278.034 348.535 335L295.312 334.512C287.337 334.512 268.294 334.674 238.184 335C242.253 296.263 245.02 251.178 246.484 199.746H113.428L109.277 335L52.6367 334.512C45.4753 334.512 28.0599 334.674 0.390625 335ZM409.57 335C412.988 299.193 415.267 271.035 416.406 250.527C418.034 222.533 419.58 184.121 421.045 135.293C422.673 86.4648 423.486 52.041 423.486 32.0215C423.486 24.86 423.405 14.7689 423.242 1.74805C444.889 2.23633 462.061 2.48047 474.756 2.48047C492.497 2.48047 513.167 2.15495 536.768 1.50391C560.368 0.690104 580.632 0.283203 597.559 0.283203C617.904 0.283203 632.389 0.852865 641.016 1.99219C652.409 3.45703 662.337 6.0612 670.801 9.80469C679.427 13.5482 686.589 18.1868 692.285 23.7207C698.633 30.2311 703.597 38.0436 707.178 47.1582C711.247 57.5749 713.281 68.724 713.281 80.6055C713.281 89.8828 712.061 98.7533 709.619 107.217C707.34 115.68 704.004 123.249 699.609 129.922C695.378 136.432 690.576 141.885 685.205 146.279C679.834 150.674 674.544 154.092 669.336 156.533C664.29 158.975 657.454 161.416 648.828 163.857C657.454 165.322 664.372 167.031 669.58 168.984C674.788 170.775 680.322 173.786 686.182 178.018C692.204 182.087 697.575 187.376 702.295 193.887C707.015 200.397 710.514 207.721 712.793 215.859C715.234 223.835 716.455 232.298 716.455 241.25C716.455 253.62 714.421 265.257 710.352 276.162C706.283 287.067 700.586 296.426 693.262 304.238C687.077 310.911 679.02 316.608 669.092 321.328C659.163 326.048 648.991 329.303 638.574 331.094C630.111 332.396 614.648 333.372 592.188 334.023C569.889 334.674 546.208 335 521.143 335L456.934 334.756L409.57 335ZM518.457 131.631H553.125C564.518 131.631 572.575 131.387 577.295 130.898C582.178 130.247 586.898 129.189 591.455 127.725C596.012 126.26 599.919 123.818 603.174 120.4C606.592 116.982 608.952 113.158 610.254 108.926C611.719 104.694 612.451 100.462 612.451 96.2305C612.451 90.2083 610.986 84.8372 608.057 80.1172C605.29 75.3971 600.732 71.8978 594.385 69.6191C588.037 67.3405 578.353 66.2012 565.332 66.2012H521.387L518.457 131.631ZM512.842 268.105H559.717C572.087 268.105 581.201 267.373 587.061 265.908C594.222 264.118 599.674 261.758 603.418 258.828C607.161 255.898 610.091 251.911 612.207 246.865C614.486 241.82 615.625 236.204 615.625 230.02C615.625 224.648 614.73 219.928 612.939 215.859C611.149 211.79 608.464 208.372 604.883 205.605C601.302 202.839 596.908 200.885 591.699 199.746C586.491 198.444 578.353 197.793 567.285 197.793H515.771L512.842 268.105ZM764.062 335C767.643 297.891 770.085 268.187 771.387 245.889C773.34 212.686 775.293 169.717 777.246 116.982C778.711 76.6178 779.443 47.7279 779.443 30.3125V1.74805C798.486 2.23633 814.925 2.48047 828.76 2.48047C842.106 2.48047 859.603 2.15495 881.25 1.50391C902.897 0.690104 923.242 0.283203 942.285 0.283203C964.095 0.283203 983.219 1.58529 999.658 4.18945C1016.1 6.79362 1031.4 12.1647 1045.56 20.3027C1059.88 28.4408 1071.84 39.1016 1081.45 52.2852C1091.05 65.4688 1098.37 80.931 1103.42 98.6719C1108.46 116.25 1110.99 134.398 1110.99 153.115C1110.99 171.507 1109.03 189.248 1105.13 206.338C1101.22 223.265 1095.77 238.564 1088.77 252.236C1081.77 265.908 1073.55 277.708 1064.11 287.637C1054.83 297.402 1044.17 305.785 1032.13 312.783C1023.18 317.992 1014.14 322.061 1005.03 324.99C995.915 327.92 983.464 330.28 967.676 332.07C950.098 334.023 930.16 335 907.861 335L809.229 334.268C799.951 334.268 784.896 334.512 764.062 335ZM869.531 261.514C878.483 262.327 887.842 262.734 897.607 262.734C914.209 262.734 929.02 261.27 942.041 258.34C955.062 255.41 966.455 249.144 976.221 239.541C986.149 229.938 993.473 217.65 998.193 202.676C1002.91 187.539 1005.27 172.077 1005.27 156.289C1005.27 136.921 1001.77 120.645 994.775 107.461C987.777 94.1146 978.418 84.8372 966.699 79.6289C955.143 74.4206 939.355 71.8164 919.336 71.8164C907.617 71.8164 893.783 72.3047 877.832 73.2812L869.531 261.514ZM1275.78 335C1279.36 297.891 1281.8 268.187 1283.11 245.889C1285.06 212.686 1287.01 169.717 1288.96 116.982C1290.43 76.6178 1291.16 47.7279 1291.16 30.3125V1.74805C1310.21 2.23633 1326.64 2.48047 1340.48 2.48047C1353.82 2.48047 1371.32 2.15495 1392.97 1.50391C1414.62 0.690104 1434.96 0.283203 1454 0.283203C1475.81 0.283203 1494.94 1.58529 1511.38 4.18945C1527.82 6.79362 1543.12 12.1647 1557.28 20.3027C1571.6 28.4408 1583.56 39.1016 1593.16 52.2852C1602.77 65.4688 1610.09 80.931 1615.14 98.6719C1620.18 116.25 1622.71 134.398 1622.71 153.115C1622.71 171.507 1620.75 189.248 1616.85 206.338C1612.94 223.265 1607.49 238.564 1600.49 252.236C1593.49 265.908 1585.27 277.708 1575.83 287.637C1566.55 297.402 1555.89 305.785 1543.85 312.783C1534.9 317.992 1525.86 322.061 1516.75 324.99C1507.63 327.92 1495.18 330.28 1479.39 332.07C1461.82 334.023 1441.88 335 1419.58 335L1320.95 334.268C1311.67 334.268 1296.61 334.512 1275.78 335ZM1381.25 261.514C1390.2 262.327 1399.56 262.734 1409.33 262.734C1425.93 262.734 1440.74 261.27 1453.76 258.34C1466.78 255.41 1478.17 249.144 1487.94 239.541C1497.87 229.938 1505.19 217.65 1509.91 202.676C1514.63 187.539 1516.99 172.077 1516.99 156.289C1516.99 136.921 1513.49 120.645 1506.49 107.461C1499.5 94.1146 1490.14 84.8372 1478.42 79.6289C1466.86 74.4206 1451.07 71.8164 1431.05 71.8164C1419.34 71.8164 1405.5 72.3047 1389.55 73.2812L1381.25 261.514ZM1932.28 335C1913.72 334.674 1898.26 334.512 1885.89 334.512C1870.59 334.512 1855.21 334.674 1839.75 335L1839.5 301.553C1833.64 308.877 1828.68 314.411 1824.61 318.154C1820.54 321.735 1816.06 324.909 1811.18 327.676C1806.46 330.443 1801.09 332.884 1795.07 335C1789.21 336.953 1782.37 338.499 1774.56 339.639C1766.91 340.778 1759.1 341.348 1751.12 341.348C1738.26 341.348 1726.06 339.801 1714.5 336.709C1703.11 333.779 1693.02 328.734 1684.23 321.572C1675.6 314.411 1669.66 306.273 1666.41 297.158C1663.31 288.044 1661.77 277.464 1661.77 265.42C1661.77 262.49 1662.01 257.933 1662.5 251.748L1666.41 196.328C1667.55 175.983 1668.6 153.441 1669.58 128.701C1670.23 113.564 1670.56 99.2415 1670.56 85.7324C1690.74 86.0579 1707.91 86.2207 1722.07 86.2207C1736.39 86.2207 1752.18 86.0579 1769.43 85.7324L1761.87 178.75C1760.73 192.91 1760.07 202.594 1759.91 207.803C1759.91 212.848 1759.91 216.266 1759.91 218.057C1759.91 235.146 1763.33 246.702 1770.17 252.725C1777.16 258.747 1785.47 261.758 1795.07 261.758C1798.97 261.758 1802.88 261.188 1806.79 260.049C1810.69 258.91 1814.44 257.282 1818.02 255.166C1821.11 253.213 1823.96 250.771 1826.56 247.842C1829.33 244.749 1831.77 241.006 1833.89 236.611C1836.49 231.24 1838.44 225.462 1839.75 219.277C1841.54 210.651 1842.92 199.746 1843.9 186.562C1844.55 176.96 1845.44 160.358 1846.58 136.758L1848.54 85.7324C1869.53 86.0579 1886.78 86.2207 1900.29 86.2207C1915.43 86.2207 1930.65 86.0579 1945.95 85.7324C1942.2 127.074 1939.27 166.38 1937.16 203.652C1935.04 240.924 1933.41 284.707 1932.28 335ZM1987.45 335L1995.02 226.602L1997.46 164.346C1997.62 153.115 1997.71 141.641 1997.71 129.922C1997.71 118.04 1997.54 103.311 1997.22 85.7324C2016.91 86.0579 2032.54 86.2207 2044.09 86.2207C2057.6 86.2207 2073.14 86.0579 2090.72 85.7324L2089.75 113.32C2096.09 106.159 2101.3 100.869 2105.37 97.4512C2109.44 93.8704 2114.08 90.6966 2119.29 87.9297C2124.5 85 2129.95 82.8841 2135.64 81.582C2141.34 80.1172 2147.28 79.3848 2153.47 79.3848C2159.33 79.3848 2165.84 80.1986 2173 81.8262C2173.16 99.5671 2173.57 114.215 2174.22 125.771L2175.93 163.369C2166.98 160.765 2158.59 159.463 2150.78 159.463C2141.02 159.463 2132.55 160.928 2125.39 163.857C2118.39 166.624 2112.13 170.938 2106.59 176.797C2101.22 182.493 2096.91 189.655 2093.65 198.281C2090.4 206.908 2088.12 220.579 2086.82 239.297C2085.51 258.014 2084.86 279.417 2084.86 303.506C2084.86 311.969 2085.19 322.467 2085.84 335C2070.05 334.674 2054.18 334.512 2038.23 334.512C2022.44 334.512 2005.52 334.674 1987.45 335ZM2225.49 156.777C2228.58 140.664 2230.53 129.596 2231.35 123.574C2232.16 117.389 2233.46 107.786 2235.25 94.7656C2282.13 84.5117 2322.41 79.3848 2356.1 79.3848C2375.31 79.3848 2392.89 81.582 2408.84 85.9766C2424.79 90.2083 2437.24 97.1257 2446.19 106.729C2455.14 116.331 2459.62 130.085 2459.62 147.988C2459.62 157.103 2458.4 177.611 2455.96 209.512C2453.52 241.413 2451.64 283.242 2450.34 335C2434.39 334.674 2418.52 334.512 2402.73 334.512C2387.43 334.512 2371.16 334.674 2353.91 335C2356.18 317.096 2358.71 280.15 2361.47 224.16C2355.29 227.09 2350.41 229.206 2346.83 230.508C2343.41 231.81 2337.3 233.763 2328.52 236.367C2319.73 238.971 2312.81 241.169 2307.76 242.959C2302.88 244.749 2298.57 247.028 2294.82 249.795C2291.24 252.562 2288.64 255.41 2287.01 258.34C2285.55 261.27 2284.81 264.525 2284.81 268.105C2284.81 273.639 2287.01 278.359 2291.41 282.266C2295.8 286.172 2302.8 288.125 2312.4 288.125C2315.82 288.125 2319.48 287.881 2323.39 287.393C2327.29 286.742 2332.67 285.277 2339.5 282.998C2334.78 295.531 2329.17 313.841 2322.66 337.93C2308.66 340.208 2295.39 341.348 2282.86 341.348C2262.68 341.348 2245.83 338.581 2232.32 333.047C2218.98 327.35 2208.64 318.236 2201.32 305.703C2194.16 293.171 2190.58 280.638 2190.58 268.105C2190.58 260.456 2191.88 252.969 2194.48 245.645C2197.25 238.32 2201.48 231.159 2207.18 224.16C2212.87 217.161 2219.55 211.221 2227.2 206.338C2234.85 201.292 2245.26 196.572 2258.45 192.178C2271.79 187.783 2288.64 183.633 2308.98 179.727C2317.45 178.099 2325.18 176.39 2332.18 174.6C2339.34 172.646 2344.38 171.019 2347.31 169.717C2350.41 168.252 2352.85 166.624 2354.64 164.834C2356.59 162.881 2357.98 160.928 2358.79 158.975C2359.6 156.859 2360.01 154.661 2360.01 152.383C2360.01 146.198 2357.41 141.478 2352.2 138.223C2346.99 134.805 2339.34 133.096 2329.25 133.096C2301.25 133.096 2266.67 140.99 2225.49 156.777ZM2502.83 335C2507.55 298.053 2511.13 257.282 2513.57 212.686C2516.18 167.926 2517.72 125.609 2518.21 85.7324C2537.74 86.0579 2554.59 86.2207 2568.75 86.2207C2585.19 86.2207 2600.98 86.0579 2616.11 85.7324L2613.67 118.936C2619.04 112.913 2623.68 108.193 2627.59 104.775C2631.49 101.195 2636.3 97.7767 2641.99 94.5215C2647.85 91.1035 2654.04 88.3366 2660.55 86.2207C2667.06 84.1048 2674.14 82.4772 2681.79 81.3379C2689.6 80.0358 2697.74 79.3848 2706.2 79.3848C2717.92 79.3848 2729.31 80.6868 2740.38 83.291C2751.61 85.7324 2760.97 89.3132 2768.46 94.0332C2775.94 98.5905 2782.21 104.368 2787.26 111.367C2792.3 118.203 2795.64 125.609 2797.27 133.584C2798.89 141.559 2799.71 149.779 2799.71 158.242C2799.71 164.427 2799.06 177.773 2797.75 198.281L2793.6 286.66C2792.79 304.076 2792.38 320.189 2792.38 335C2775.94 334.674 2760.56 334.512 2746.24 334.512C2726.87 334.512 2709.21 334.674 2693.26 335C2694.73 320.189 2696.27 298.216 2697.9 269.082C2699.53 239.785 2700.34 219.196 2700.34 207.314C2700.34 188.923 2696.76 176.146 2689.6 168.984C2682.6 161.66 2673.73 157.998 2662.99 157.998C2653.55 157.998 2644.6 161.09 2636.13 167.275C2627.83 173.46 2621.4 182.493 2616.85 194.375C2612.29 206.094 2609.03 225.462 2607.08 252.48C2605.29 279.499 2604.07 307.005 2603.42 335C2587.14 334.674 2571.27 334.512 2555.81 334.512C2539.53 334.512 2521.88 334.674 2502.83 335Z" fill="white"/>
</svg>
